HIERARCHY
ROOT mixamorig:Hips
{
	OFFSET 0.00 0.00 0.00
	CHANNELS 6 Xposition Yposition Zposition Zrotation Yrotation Xrotation
	JOINT mixamorig:Spine
	{
		OFFSET	0.0000	9.9235	-1.2273
		CHANNELS 3 Zrotation Yrotation Xrotation
		JOINT mixamorig:Spine1
		{
			OFFSET	-0.0001	11.6455	-1.4224
			CHANNELS 3 Zrotation Yrotation Xrotation
			JOINT mixamorig:Spine2
			{
				OFFSET	0.0001	13.3602	-1.6265
				CHANNELS 3 Zrotation Yrotation Xrotation
				JOINT mixamorig:Neck
				{
					OFFSET	0.0000	15.0325	0.7929
					CHANNELS 3 Zrotation Yrotation Xrotation
					JOINT mixamorig:Head
					{
						OFFSET	-0.0000	10.3218	3.1424
						CHANNELS 3 Zrotation Yrotation Xrotation
						JOINT mixamorig:HeadTop_End
						{
							OFFSET	0.0002	18.4747	6.6364
							CHANNELS 3 Zrotation Yrotation Xrotation
							End Site
							{
								OFFSET 0.0000 0.0000 0.0000
							}
						}
						JOINT mixamorig:LeftEye
						{
							OFFSET	2.9479	7.6817	9.1207
							CHANNELS 3 Zrotation Yrotation Xrotation
							End Site
							{
								OFFSET 0.0000 0.0000 0.0000
							}
						}
						JOINT mixamorig:RightEye
						{
							OFFSET	-2.9445	7.6817	9.1205
							CHANNELS 3 Zrotation Yrotation Xrotation
							End Site
							{
								OFFSET 0.0000 0.0000 0.0000
							}
						}
					}
				}
				JOINT mixamorig:LeftShoulder
				{
					OFFSET	6.1059	9.1104	0.7056
					CHANNELS 3 Zrotation Yrotation Xrotation
					JOINT mixamorig:LeftArm
					{
						OFFSET	12.6532	-0.3431	-2.6009
						CHANNELS 3 Zrotation Yrotation Xrotation
						JOINT mixamorig:LeftForeArm
						{
							OFFSET	27.3517	-0.9645	-1.4034
							CHANNELS 3 Zrotation Yrotation Xrotation
							JOINT mixamorig:LeftHand
							{
								OFFSET	27.5619	-0.7072	1.5500
								CHANNELS 3 Zrotation Yrotation Xrotation
								JOINT mixamorig:LeftHandMiddle1
								{
									OFFSET	12.6630	-1.3962	0.9548
									CHANNELS 3 Zrotation Yrotation Xrotation
									JOINT mixamorig:LeftHandMiddle2
									{
										OFFSET	3.6093	-0.1669	0.0778
										CHANNELS 3 Zrotation Yrotation Xrotation
										JOINT mixamorig:LeftHandMiddle3
										{
											OFFSET	3.4004	-0.6274	0.1148
											CHANNELS 3 Zrotation Yrotation Xrotation
											End Site
											{
												OFFSET 3.6205 -0.6493 0.1199
											}
										}
									}
								}
								JOINT mixamorig:LeftHandThumb1
								{
									OFFSET	3.3268	-2.0474	3.5790
									CHANNELS 3 Zrotation Yrotation Xrotation
									JOINT mixamorig:LeftHandThumb2
									{
										OFFSET	3.4890	-1.4806	2.8548
										CHANNELS 3 Zrotation Yrotation Xrotation
										JOINT mixamorig:LeftHandThumb3
										{
											OFFSET	3.4086	-1.7658	2.1133
											CHANNELS 3 Zrotation Yrotation Xrotation
											End Site
											{
												OFFSET 2.7231 -1.1597 1.7903
											}
										}
									}
								}
								JOINT mixamorig:LeftHandIndex1
								{
									OFFSET	11.9722	-1.1061	3.7324
									CHANNELS 3 Zrotation Yrotation Xrotation
									JOINT mixamorig:LeftHandIndex2
									{
										OFFSET	3.8387	-0.6406	-0.0310
										CHANNELS 3 Zrotation Yrotation Xrotation
										JOINT mixamorig:LeftHandIndex3
										{
											OFFSET	3.3346	-0.7374	-0.0133
											CHANNELS 3 Zrotation Yrotation Xrotation
											End Site
											{
												OFFSET 2.9714 -0.8030 0.0009
											}
										}
									}
								}
								JOINT mixamorig:LeftHandRing1
								{
									OFFSET	12.1659	-1.6805	-1.2769
									CHANNELS 3 Zrotation Yrotation Xrotation
									JOINT mixamorig:LeftHandRing2
									{
										OFFSET	3.5925	-0.2366	-0.0771
										CHANNELS 3 Zrotation Yrotation Xrotation
										JOINT mixamorig:LeftHandRing3
										{
											OFFSET	3.2906	-0.3266	-0.0615
											CHANNELS 3 Zrotation Yrotation Xrotation
											End Site
											{
												OFFSET 3.5423 -0.9211 -0.0200
											}
										}
									}
								}
								JOINT mixamorig:LeftHandPinky1
								{
									OFFSET	11.0508	-2.1872	-3.8040
									CHANNELS 3 Zrotation Yrotation Xrotation
									JOINT mixamorig:LeftHandPinky2
									{
										OFFSET	4.1236	-0.3047	0.1212
										CHANNELS 3 Zrotation Yrotation Xrotation
										JOINT mixamorig:LeftHandPinky3
										{
											OFFSET	2.5805	-0.2597	0.0823
											CHANNELS 3 Zrotation Yrotation Xrotation
											End Site
											{
												OFFSET 2.9027 -0.3379 0.0963
											}
										}
									}
								}
							}
						}
					}
				}
				JOINT mixamorig:RightShoulder
				{
					OFFSET	-6.1057	9.1105	0.7056
					CHANNELS 3 Zrotation Yrotation Xrotation
					JOINT mixamorig:RightArm
					{
						OFFSET	-12.6532	-0.3429	-2.6009
						CHANNELS 3 Zrotation Yrotation Xrotation
						JOINT mixamorig:RightForeArm
						{
							OFFSET	-27.3518	-0.9642	-1.4034
							CHANNELS 3 Zrotation Yrotation Xrotation
							JOINT mixamorig:RightHand
							{
								OFFSET	-27.5619	-0.7068	1.5501
								CHANNELS 3 Zrotation Yrotation Xrotation
								JOINT mixamorig:RightHandMiddle1
								{
									OFFSET	-12.6630	-1.3960	0.9549
									CHANNELS 3 Zrotation Yrotation Xrotation
									JOINT mixamorig:RightHandMiddle2
									{
										OFFSET	-3.6093	-0.1669	0.0778
										CHANNELS 3 Zrotation Yrotation Xrotation
										JOINT mixamorig:RightHandMiddle3
										{
											OFFSET	-3.4004	-0.6273	0.1148
											CHANNELS 3 Zrotation Yrotation Xrotation
											End Site
											{
												OFFSET -3.6205 -0.6492 0.1199
											}
										}
									}
								}
								JOINT mixamorig:RightHandThumb1
								{
									OFFSET	-3.3269	-2.0474	3.5790
									CHANNELS 3 Zrotation Yrotation Xrotation
									JOINT mixamorig:RightHandThumb2
									{
										OFFSET	-3.4890	-1.4805	2.8548
										CHANNELS 3 Zrotation Yrotation Xrotation
										JOINT mixamorig:RightHandThumb3
										{
											OFFSET	-3.4086	-1.7658	2.1133
											CHANNELS 3 Zrotation Yrotation Xrotation
											End Site
											{
												OFFSET -2.7231 -1.1596 1.7903
											}
										}
									}
								}
								JOINT mixamorig:RightHandIndex1
								{
									OFFSET	-11.9722	-1.1059	3.7324
									CHANNELS 3 Zrotation Yrotation Xrotation
									JOINT mixamorig:RightHandIndex2
									{
										OFFSET	-3.8387	-0.6406	-0.0310
										CHANNELS 3 Zrotation Yrotation Xrotation
										JOINT mixamorig:RightHandIndex3
										{
											OFFSET	-3.3346	-0.7373	-0.0133
											CHANNELS 3 Zrotation Yrotation Xrotation
											End Site
											{
												OFFSET -2.9715 -0.8029 0.0009
											}
										}
									}
								}
								JOINT mixamorig:RightHandRing1
								{
									OFFSET	-12.1659	-1.6803	-1.2769
									CHANNELS 3 Zrotation Yrotation Xrotation
									JOINT mixamorig:RightHandRing2
									{
										OFFSET	-3.5925	-0.2366	-0.0771
										CHANNELS 3 Zrotation Yrotation Xrotation
										JOINT mixamorig:RightHandRing3
										{
											OFFSET	-3.2906	-0.3265	-0.0615
											CHANNELS 3 Zrotation Yrotation Xrotation
											End Site
											{
												OFFSET -3.5423 -0.9210 -0.0200
											}
										}
									}
								}
								JOINT mixamorig:RightHandPinky1
								{
									OFFSET	-11.0508	-2.1870	-3.8040
									CHANNELS 3 Zrotation Yrotation Xrotation
									JOINT mixamorig:RightHandPinky2
									{
										OFFSET	-4.1236	-0.3046	0.1212
										CHANNELS 3 Zrotation Yrotation Xrotation
										JOINT mixamorig:RightHandPinky3
										{
											OFFSET	-2.5805	-0.2597	0.0823
											CHANNELS 3 Zrotation Yrotation Xrotation
											End Site
											{
												OFFSET -2.9027 -0.3379 0.0963
											}
										}
									}
								}
							}
						}
					}
				}
			}
		}
	}
	JOINT mixamorig:RightUpLeg
	{
		OFFSET	-9.1245	-6.6564	-0.0554
		CHANNELS 3 Zrotation Yrotation Xrotation
		JOINT mixamorig:RightLeg
		{
			OFFSET	0.0000	-40.5610	-1.7662
			CHANNELS 3 Zrotation Yrotation Xrotation
			JOINT mixamorig:RightFoot
			{
				OFFSET	0.4978	-41.9625	-3.3512
				CHANNELS 3 Zrotation Yrotation Xrotation
				JOINT mixamorig:RightToeBase
				{
					OFFSET	-0.3734	-10.4922	12.6406
					CHANNELS 3 Zrotation Yrotation Xrotation
					End Site
					{
						OFFSET 0.0000 0.0000 9.9925
					}
				}
			}
		}
	}
	JOINT mixamorig:LeftUpLeg
	{
		OFFSET	9.1245	-6.6564	-0.0554
		CHANNELS 3 Zrotation Yrotation Xrotation
		JOINT mixamorig:LeftLeg
		{
			OFFSET	-0.0000	-40.5610	-1.7662
			CHANNELS 3 Zrotation Yrotation Xrotation
			JOINT mixamorig:LeftFoot
			{
				OFFSET	-0.4978	-41.9625	-3.3512
				CHANNELS 3 Zrotation Yrotation Xrotation
				JOINT mixamorig:LeftToeBase
				{
					OFFSET	0.3734	-10.4922	12.6406
					CHANNELS 3 Zrotation Yrotation Xrotation
					End Site
					{
						OFFSET -0.0000 0.0000 9.9925
					}
				}
			}
		}
	}
}
MOTION
Frames: 4
Frame Time: 0.0333333
-0.1715 90.0961 1.0097 -0.8311 -8.7349 23.6144 -0.1850 6.0763 14.6142 -0.5883 1.6848 2.2564 -0.6349 1.6961 2.2474 -0.4597 -0.8215 1.4225 -2.3592 -6.0787 -23.2515 0.0000 -0.0000 0.0000 0.0000 -0.0000 0.0000 0.0000 -0.0000 0.0000 -10.8639 -20.8236 4.3636 -25.1217 -23.9856 -38.7113 122.0430 -88.2166 -124.0667 -10.8121 17.6835 -108.5390 -56.8050 -6.6780 2.7172 -66.0650 -2.2266 3.0215 -32.5924 -1.6500 1.2359 13.0279 -44.4557 34.8650 -36.0758 9.0668 -42.3146 15.6331 16.0320 11.7727 -36.8890 -12.0679 -0.0797 -80.9279 -3.6226 1.5425 -32.2443 -1.6129 0.0080 -66.3286 -7.6473 3.1023 -54.4562 -3.0990 0.1488 -49.9108 -2.6622 0.1018 -83.0059 -5.9515 4.2522 -39.8550 -1.7781 1.7078 -24.3915 -1.2460 0.9181 -1.6480 9.9950 4.8412 16.0454 57.1290 -2.1228 -18.0584 85.6953 -20.0169 -1.8213 8.9104 -35.3626 60.7831 2.3598 3.7728 100.3175 3.2354 6.4052 28.2320 2.0538 1.0574 29.1820 31.5826 70.2545 22.2082 -12.7276 39.2446 -11.6394 -42.0833 32.1920 21.9864 6.7008 0.1039 105.4020 5.4003 4.0944 52.5874 3.6734 0.7209 78.1540 7.6756 4.7977 98.6457 5.9995 3.4823 14.3286 1.0705 -0.2279 72.8945 7.6985 4.3724 75.8053 3.3929 4.7509 46.6023 2.8947 2.4232 0.3966 9.4191 -30.1837 -3.5083 -2.6352 46.1325 -0.0152 -0.1722 -24.5767 0.0000 -0.0000 -18.7233 -7.8802 7.7611 -73.4037 -1.7165 -2.5107 102.1980 4.6716 10.4163 4.1472 -0.0000 -0.0000 0.3332 
-0.8046 90.6612 0.4444 2.1451 -7.6013 24.6866 -3.3695 9.0644 13.3764 -1.1207 2.4106 2.1907 -1.1845 2.4101 2.1683 -0.0536 -1.0410 1.7734 1.7438 -8.7728 -22.9547 0.0000 -0.0000 0.0000 0.0000 -0.0000 0.0000 0.0000 -0.0000 0.0000 -9.1659 -19.2332 3.7330 -24.7735 -23.9130 -37.5165 131.3616 -87.9671 -133.3903 -11.7923 18.7442 -110.9941 -56.8050 -6.6780 2.7172 -66.0650 -2.2266 3.0215 -32.5924 -1.6500 1.2359 13.0279 -44.4557 34.8650 -36.0758 9.0668 -42.3146 15.6332 16.0320 11.7727 -36.8890 -12.0679 -0.0797 -80.9279 -3.6226 1.5426 -32.2443 -1.6129 0.0080 -66.3286 -7.6473 3.1023 -54.4562 -3.0990 0.1488 -49.9108 -2.6622 0.1018 -83.0059 -5.9515 4.2522 -39.8550 -1.7781 1.7079 -24.3915 -1.2460 0.9181 -2.0878 10.6066 4.6845 19.3627 56.9682 -0.9968 -29.2605 87.1554 -31.2395 -0.8934 6.5915 -35.4363 60.7831 2.3598 3.7728 100.3175 3.2354 6.4052 28.2320 2.0538 1.0575 29.1820 31.5826 70.2545 22.2082 -12.7276 39.2446 -11.6395 -42.0833 32.1920 21.9864 6.7008 0.1039 105.4020 5.4003 4.0944 52.5875 3.6734 0.7209 78.1540 7.6756 4.7977 98.6457 5.9995 3.4823 14.3286 1.0705 -0.2279 72.8945 7.6985 4.3724 75.8053 3.3929 4.7509 46.6023 2.8947 2.4232 -1.5897 5.2291 -13.7689 -2.5305 -2.5312 27.5003 -0.3715 0.5994 -18.7310 -0.2628 -0.0970 -20.5018 -10.2764 5.5552 -81.5308 -4.6365 -3.9611 88.1011 1.9858 10.1524 0.3715 -0.0000 0.0000 0.3564 
-1.1632 91.2820 -0.0517 4.9515 -6.4595 25.7002 -5.5864 10.8612 12.1431 -1.5670 2.8637 2.1411 -1.6457 2.8490 2.1111 0.2488 -1.2705 2.1870 5.5265 -12.1209 -22.5353 0.0000 -0.0000 0.0000 0.0000 -0.0000 0.0000 0.0000 -0.0000 0.0000 -8.8933 -18.5687 3.5638 -23.4955 -23.4290 -37.7566 142.3688 -87.4623 -144.4060 -13.8672 20.1928 -112.9383 -56.8050 -6.6780 2.7172 -66.0650 -2.2266 3.0215 -32.5924 -1.6500 1.2360 13.0279 -44.4557 34.8650 -36.0758 9.0668 -42.3146 15.6332 16.0320 11.7727 -36.8890 -12.0679 -0.0797 -80.9279 -3.6226 1.5426 -32.2443 -1.6129 0.0080 -66.3286 -7.6473 3.1023 -54.4562 -3.0989 0.1488 -49.9108 -2.6622 0.1018 -83.0059 -5.9515 4.2522 -39.8550 -1.7781 1.7079 -24.3915 -1.2460 0.9181 -2.5289 11.2185 4.5269 22.6429 56.7374 0.0898 -58.9600 88.3114 -60.9596 0.0083 4.2720 -35.5096 60.7831 2.3598 3.7728 100.3175 3.2354 6.4052 28.2320 2.0538 1.0575 29.1820 31.5826 70.2545 22.2082 -12.7276 39.2446 -11.6394 -42.0833 32.1920 21.9864 6.7008 0.1039 105.4020 5.4003 4.0944 52.5875 3.6734 0.7209 78.1540 7.6756 4.7977 98.6457 5.9995 3.4823 14.3286 1.0705 -0.2279 72.8945 7.6985 4.3724 75.8053 3.3929 4.7509 46.6023 2.8947 2.4232 -4.0845 -5.8709 -2.3417 -1.8979 3.6838 13.6860 0.3457 3.0895 5.1654 -0.5716 -0.2401 -38.6489 -12.4193 2.9086 -81.6891 -4.3217 -7.1119 66.4594 -1.9424 9.3117 -3.7535 0.0000 -0.0000 0.4365 
-1.1251 92.0362 -0.3345 6.7514 -5.0819 26.4865 -6.4581 11.4953 10.8243 -1.7600 3.0426 2.0627 -1.8539 3.0081 2.0347 0.4416 -1.4103 2.3928 7.4374 -15.0753 -21.4201 0.0000 -0.0000 0.0000 0.0000 -0.0000 0.0000 0.0000 -0.0000 0.0000 -9.2552 -18.0073 3.5458 -22.2340 -23.1193 -37.5508 145.0938 -87.2785 -147.1339 -14.8897 20.7699 -114.0049 -56.8050 -6.6780 2.7172 -66.0650 -2.2266 3.0215 -32.5924 -1.6500 1.2359 13.0279 -44.4557 34.8650 -36.0758 9.0668 -42.3146 15.6332 16.0320 11.7727 -36.8890 -12.0679 -0.0797 -80.9279 -3.6226 1.5426 -32.2443 -1.6129 0.0080 -66.3286 -7.6473 3.1023 -54.4562 -3.0989 0.1488 -49.9108 -2.6622 0.1018 -83.0059 -5.9515 4.2522 -39.8550 -1.7781 1.7079 -24.3915 -1.2460 0.9181 -2.6182 11.6214 4.4746 24.7373 56.5024 1.2759 -83.4523 88.5189 -85.4609 0.1420 3.3131 -35.4318 60.7831 2.3597 3.7728 100.3175 3.2354 6.4052 28.2320 2.0538 1.0574 29.1820 31.5826 70.2545 22.2082 -12.7276 39.2446 -11.6394 -42.0833 32.1920 21.9864 6.7008 0.1039 105.4020 5.4003 4.0944 52.5874 3.6734 0.7209 78.1540 7.6756 4.7977 98.6457 5.9995 3.4823 14.3286 1.0705 -0.2280 72.8944 7.6984 4.3724 75.8053 3.3929 4.7509 46.6023 2.8946 2.4232 -6.0027 -11.3453 -2.6722 -1.8092 6.8777 22.8627 2.0222 3.0669 17.6461 -1.5148 -0.2931 -19.6583 -11.5347 -0.9620 -76.1699 1.7395 -5.7382 41.7729 -5.6282 6.1899 -4.8869 0.0000 -0.0000 1.0202 
